<?xml version="1.0" standalone="no"?>
<!DOCTYPE svg PUBLIC "-//W3C//DTD SVG 20010904//EN"
 "http://www.w3.org/TR/2001/REC-SVG-20010904/DTD/svg10.dtd">
<svg version="1.0" xmlns="http://www.w3.org/2000/svg"
 width="198.000000pt" height="247.000000pt" viewBox="0 0 198.000000 247.000000"
 preserveAspectRatio="xMidYMid meet">

<g transform="translate(0.000000,247.000000) scale(0.100000,-0.100000)"
fill="#000000" stroke="none">
<path d="M1082 1798 c-6 -13 -24 -46 -40 -73 l-30 -50 193 -335 192 -335 -181
-3 -182 -2 -41 -73 -42 -72 180 -3 c99 -1 259 -1 354 0 l174 3 -274 474 c-151
261 -278 478 -283 483 -5 5 -13 -1 -20 -14z"/>
<path d="M800 1307 c-107 -187 -234 -407 -282 -488 l-86 -149 86 0 87 1 195
338 195 338 21 -36 c12 -20 54 -91 93 -158 l72 -123 85 0 c47 0 83 3 81 8 -16
28 -350 607 -351 608 0 1 -89 -152 -196 -339z"/>
<path d="M973 1258 c-6 -13 -83 -149 -172 -303 l-161 -280 556 -3 c307 -1 559
0 561 2 3 3 -14 36 -37 75 l-41 71 -389 0 c-215 0 -390 2 -390 4 0 3 40 75 90
160 l89 155 -40 71 c-22 38 -44 70 -48 70 -4 0 -12 -10 -18 -22z"/>
</g>
</svg>
